<mxfile host="app.diagrams.net" modified="2024-03-27T02:08:25.558Z" agent="Mozilla/5.0 (X11; Linux x86_64) AppleWebKit/537.36 (KHTML, like Gecko) Chrome/122.0.0.0 Safari/537.36" etag="Wk98w2KmGCCVJ6BrEoS2" version="24.2.0" type="device">
  <diagram name="Pagina-1" id="V3WfqM-thNujFk5MW7UW">
    <mxGraphModel dx="939" dy="529" grid="1" gridSize="10" guides="1" tooltips="1" connect="1" arrows="1" fold="1" page="1" pageScale="1" pageWidth="827" pageHeight="1169" math="0" shadow="0">
      <root>
        <mxCell id="0" />
        <mxCell id="1" parent="0" />
        <mxCell id="f-qYm4Km7zCYaurgx8sc-17" value="SDD" style="rounded=0;whiteSpace=wrap;html=1;" vertex="1" parent="1">
          <mxGeometry x="420" y="200" width="120" height="60" as="geometry" />
        </mxCell>
        <mxCell id="f-qYm4Km7zCYaurgx8sc-16" value="SDD" style="rounded=0;whiteSpace=wrap;html=1;" vertex="1" parent="1">
          <mxGeometry x="410" y="205" width="120" height="60" as="geometry" />
        </mxCell>
        <mxCell id="f-qYm4Km7zCYaurgx8sc-15" value="CNF" style="rounded=0;whiteSpace=wrap;html=1;" vertex="1" parent="1">
          <mxGeometry x="230" y="200" width="120" height="60" as="geometry" />
        </mxCell>
        <mxCell id="f-qYm4Km7zCYaurgx8sc-14" value="CNF" style="rounded=0;whiteSpace=wrap;html=1;" vertex="1" parent="1">
          <mxGeometry x="220" y="205" width="120" height="60" as="geometry" />
        </mxCell>
        <mxCell id="f-qYm4Km7zCYaurgx8sc-13" style="edgeStyle=orthogonalEdgeStyle;rounded=0;orthogonalLoop=1;jettySize=auto;html=1;exitX=1;exitY=0.5;exitDx=0;exitDy=0;entryX=0;entryY=0.5;entryDx=0;entryDy=0;" edge="1" parent="1" source="f-qYm4Km7zCYaurgx8sc-1" target="f-qYm4Km7zCYaurgx8sc-12">
          <mxGeometry relative="1" as="geometry" />
        </mxCell>
        <mxCell id="f-qYm4Km7zCYaurgx8sc-1" value="CNF" style="rounded=0;whiteSpace=wrap;html=1;" vertex="1" parent="1">
          <mxGeometry x="210" y="210" width="120" height="60" as="geometry" />
        </mxCell>
        <mxCell id="f-qYm4Km7zCYaurgx8sc-9" style="edgeStyle=orthogonalEdgeStyle;rounded=0;orthogonalLoop=1;jettySize=auto;html=1;exitX=0.5;exitY=1;exitDx=0;exitDy=0;entryX=0.5;entryY=0;entryDx=0;entryDy=0;" edge="1" parent="1" source="f-qYm4Km7zCYaurgx8sc-3" target="f-qYm4Km7zCYaurgx8sc-1">
          <mxGeometry relative="1" as="geometry" />
        </mxCell>
        <mxCell id="f-qYm4Km7zCYaurgx8sc-3" value="aantal N" style="rounded=1;whiteSpace=wrap;html=1;gradientColor=none;fillColor=default;" vertex="1" parent="1">
          <mxGeometry x="220" y="110" width="100" height="50" as="geometry" />
        </mxCell>
        <mxCell id="f-qYm4Km7zCYaurgx8sc-11" style="edgeStyle=orthogonalEdgeStyle;rounded=0;orthogonalLoop=1;jettySize=auto;html=1;exitX=1;exitY=0.5;exitDx=0;exitDy=0;entryX=0;entryY=0.5;entryDx=0;entryDy=0;" edge="1" parent="1" source="f-qYm4Km7zCYaurgx8sc-5" target="f-qYm4Km7zCYaurgx8sc-1">
          <mxGeometry relative="1" as="geometry" />
        </mxCell>
        <mxCell id="f-qYm4Km7zCYaurgx8sc-5" value="aantal Clauses per CNF" style="rounded=1;whiteSpace=wrap;html=1;" vertex="1" parent="1">
          <mxGeometry x="70" y="215" width="100" height="50" as="geometry" />
        </mxCell>
        <mxCell id="f-qYm4Km7zCYaurgx8sc-10" style="edgeStyle=orthogonalEdgeStyle;rounded=0;orthogonalLoop=1;jettySize=auto;html=1;exitX=0.5;exitY=0;exitDx=0;exitDy=0;entryX=0.5;entryY=1;entryDx=0;entryDy=0;" edge="1" parent="1" source="f-qYm4Km7zCYaurgx8sc-8" target="f-qYm4Km7zCYaurgx8sc-1">
          <mxGeometry relative="1" as="geometry" />
        </mxCell>
        <mxCell id="f-qYm4Km7zCYaurgx8sc-8" value="aantal variabelen" style="rounded=1;whiteSpace=wrap;html=1;" vertex="1" parent="1">
          <mxGeometry x="220" y="310" width="100" height="50" as="geometry" />
        </mxCell>
        <mxCell id="f-qYm4Km7zCYaurgx8sc-19" style="edgeStyle=orthogonalEdgeStyle;rounded=0;orthogonalLoop=1;jettySize=auto;html=1;exitX=1;exitY=0.5;exitDx=0;exitDy=0;entryX=0;entryY=0.5;entryDx=0;entryDy=0;" edge="1" parent="1" source="f-qYm4Km7zCYaurgx8sc-12" target="f-qYm4Km7zCYaurgx8sc-18">
          <mxGeometry relative="1" as="geometry" />
        </mxCell>
        <mxCell id="f-qYm4Km7zCYaurgx8sc-12" value="SDD&amp;nbsp;&lt;span style=&quot;font-family: Söhne, ui-sans-serif, system-ui, -apple-system, &amp;quot;Segoe UI&amp;quot;, Roboto, Ubuntu, Cantarell, &amp;quot;Noto Sans&amp;quot;, sans-serif, &amp;quot;Helvetica Neue&amp;quot;, Arial, &amp;quot;Apple Color Emoji&amp;quot;, &amp;quot;Segoe UI Emoji&amp;quot;, &amp;quot;Segoe UI Symbol&amp;quot;, &amp;quot;Noto Color Emoji&amp;quot;; font-size: 16px; text-align: start; white-space-collapse: preserve;&quot;&gt;α_i&lt;/span&gt;" style="rounded=0;whiteSpace=wrap;html=1;" vertex="1" parent="1">
          <mxGeometry x="400" y="210" width="120" height="60" as="geometry" />
        </mxCell>
        <mxCell id="f-qYm4Km7zCYaurgx8sc-18" value="SDD&amp;nbsp;&lt;span style=&quot;font-family: Söhne, ui-sans-serif, system-ui, -apple-system, &amp;quot;Segoe UI&amp;quot;, Roboto, Ubuntu, Cantarell, &amp;quot;Noto Sans&amp;quot;, sans-serif, &amp;quot;Helvetica Neue&amp;quot;, Arial, &amp;quot;Apple Color Emoji&amp;quot;, &amp;quot;Segoe UI Emoji&amp;quot;, &amp;quot;Segoe UI Symbol&amp;quot;, &amp;quot;Noto Color Emoji&amp;quot;; font-size: 16px; text-align: start; white-space-collapse: preserve;&quot;&gt;α&lt;/span&gt;" style="rounded=0;whiteSpace=wrap;html=1;" vertex="1" parent="1">
          <mxGeometry x="590" y="210" width="120" height="60" as="geometry" />
        </mxCell>
        <mxCell id="f-qYm4Km7zCYaurgx8sc-22" style="edgeStyle=orthogonalEdgeStyle;rounded=0;orthogonalLoop=1;jettySize=auto;html=1;exitX=0.5;exitY=1;exitDx=0;exitDy=0;" edge="1" parent="1" source="f-qYm4Km7zCYaurgx8sc-21">
          <mxGeometry relative="1" as="geometry">
            <mxPoint x="589.9999999999998" y="240" as="targetPoint" />
            <Array as="points">
              <mxPoint x="560" y="240" />
            </Array>
          </mxGeometry>
        </mxCell>
        <mxCell id="f-qYm4Km7zCYaurgx8sc-21" value="operatie" style="rounded=1;whiteSpace=wrap;html=1;gradientColor=none;fillColor=default;" vertex="1" parent="1">
          <mxGeometry x="510" y="110" width="100" height="50" as="geometry" />
        </mxCell>
      </root>
    </mxGraphModel>
  </diagram>
</mxfile>
